<svg width="22" height="22" viewBox="0 0 22 22" fill="none" xmlns="http://www.w3.org/2000/svg">
<path d="M21.3481 16.0018L18.7839 13.4311C17.9854 12.6306 16.6807 12.6306 15.8822 13.4311L14.7576 14.5586C14.6451 14.6714 14.4876 14.6939 14.3527 14.6375C12.8231 13.9047 11.4398 12.9238 10.2364 11.7286C9.03302 10.5335 8.06581 9.13543 7.33478 7.60205C7.2673 7.46675 7.30104 7.3089 7.41351 7.19616L8.53817 6.06867C9.33668 5.26816 9.33668 3.96028 8.53817 3.15977L5.99643 0.600384C5.19792 -0.200128 3.8933 -0.200128 3.09479 0.600384L1.67771 2.03229C0.125676 3.57694 -0.402916 5.877 0.316869 7.8952C1.74519 11.8865 4.00577 14.6939 5.64778 16.34C8.03207 18.7303 10.8662 20.523 14.0715 21.6843C14.6676 21.8985 15.2862 22 15.916 22C17.3893 22 18.8401 21.4137 19.931 20.3201L21.3481 18.8994C22.1466 18.0989 22.1466 16.791 21.3481 15.9905V16.0018ZM20.156 17.7156L18.7389 19.1362C17.648 20.2186 16.0509 20.6019 14.6451 20.0946C11.676 19.0234 9.04427 17.3548 6.83993 15.1449C5.32163 13.6228 3.22975 11.0183 1.90265 7.32018C1.39655 5.9221 1.77893 4.3098 2.85861 3.21614L4.27569 1.79552C4.34317 1.72787 4.44439 1.69404 4.53436 1.69404C4.62434 1.69404 4.72556 1.72787 4.79304 1.79552L7.35727 4.36618C7.50348 4.51275 7.50348 4.73824 7.35727 4.88482L6.23261 6.0123C5.62529 6.63241 5.45659 7.55695 5.82773 8.33491C6.63749 10.0487 7.72841 11.5933 9.06676 12.9238C10.4051 14.2542 11.9459 15.3479 13.6441 16.1709C14.4202 16.543 15.3536 16.3739 15.961 15.765L17.0744 14.6488C17.2206 14.5022 17.4455 14.5022 17.5917 14.6488L20.156 17.2195C20.3022 17.366 20.3022 17.5915 20.156 17.7381V17.7156Z" fill="white"/>
</svg>
