<svg width="12" height="12" viewBox="0 0 12 12" fill="none" xmlns="http://www.w3.org/2000/svg">
<path d="M11.7683 1.84669L10.1543 0.231714C9.84427 -0.0772382 9.34193 -0.0772382 9.03189 0.231714L0.871329 8.39087C0.83784 8.42436 0.814073 8.46649 0.80219 8.51186L0.0146543 11.4523C-0.0253167 11.6014 0.0178952 11.7623 0.127005 11.8725C0.210188 11.9557 0.322539 12 0.43597 12C0.47378 12 0.51159 11.9957 0.548321 11.986L3.48673 11.1985C3.53318 11.1855 3.57423 11.1617 3.60772 11.1282L10.5173 4.21893L11.7683 2.968C12.0772 2.65904 12.0772 2.15565 11.7683 1.84669ZM3.27715 10.6951L0.58289 11.4167L1.30453 8.72251L7.97212 2.05626L9.94474 4.02773L3.27715 10.6951ZM11.3869 2.58451L10.3261 3.64532L8.35454 1.67277L9.41431 0.613044C9.51262 0.513661 9.67358 0.513661 9.77189 0.613044L11.3869 2.22694C11.4852 2.32633 11.4852 2.4862 11.3869 2.58451Z" fill="white"/>
</svg>
