<svg width="34" height="33" viewBox="0 0 34 33" fill="none" xmlns="http://www.w3.org/2000/svg">
<path d="M24.7906 0H10.1275C5.08078 0 0.972656 4.11153 0.972656 9.16239V23.8376C0.972656 28.8936 5.08078 33 10.1275 33H24.7906C29.8373 33 33.9454 28.8936 33.9454 23.8376V9.16239C33.9454 4.11153 29.8373 0 24.7906 0ZM31.381 23.8376C31.381 27.4769 28.4269 30.4335 24.7906 30.4335H20.4927V19.608H26.5856C27.2934 19.608 27.8678 19.0331 27.8678 18.3248C27.8678 17.6164 27.2934 17.0415 26.5856 17.0415H20.4927V14.7214C20.4927 12.3654 21.303 11.1745 22.9032 11.1745H26.5856C27.2934 11.1745 27.8678 10.5996 27.8678 9.89127C27.8678 9.18292 27.2934 8.60803 26.5856 8.60803H22.9032C19.8362 8.60803 17.9283 10.9487 17.9283 14.7214V17.0415H14.9947C14.2869 17.0415 13.7125 17.6164 13.7125 18.3248C13.7125 19.0331 14.2869 19.608 14.9947 19.608H17.9283V30.4335H10.1275C6.49632 30.4335 3.53703 27.4769 3.53703 23.8376V9.16239C3.53703 5.52823 6.49632 2.5665 10.1275 2.5665H24.7906C28.4269 2.5665 31.381 5.52823 31.381 9.16239V23.8376Z" fill="white"/>
</svg>
