<svg width="21" height="23" viewBox="0 0 21 23" fill="none" xmlns="http://www.w3.org/2000/svg">
<path d="M20.6228 8.64541L11.4143 0.866409C11.1304 0.62526 10.716 0.62526 10.432 0.866409L1.22352 8.64541C1.04702 8.79322 0.947266 9.01103 0.947266 9.2444V21.6908C0.947266 22.1187 1.29259 22.4687 1.71464 22.4687H7.85366C8.27572 22.4687 8.62104 22.1187 8.62104 21.6908V15.4676C8.62104 14.1841 9.657 13.1339 10.9232 13.1339C12.1893 13.1339 13.2253 14.1841 13.2253 15.4676V21.6908C13.2253 22.1187 13.5706 22.4687 13.9927 22.4687H20.1317C20.5538 22.4687 20.8991 22.1187 20.8991 21.6908V9.2444C20.8991 9.01103 20.7993 8.79322 20.6228 8.64541ZM19.3643 20.9129H14.7601V15.4676C14.7601 13.3206 13.0411 11.5781 10.9232 11.5781C8.80521 11.5781 7.08628 13.3206 7.08628 15.4676V20.9129H2.48202V9.61001L10.9232 2.47666L19.3643 9.61001V20.9129Z" fill="white"/>
</svg>
