<svg width="23" height="24" viewBox="0 0 23 24" fill="none" xmlns="http://www.w3.org/2000/svg">
<circle cx="11.5" cy="12" r="10.5" stroke="white" stroke-width="2"/>
<path d="M10.2479 14.0912C10.2479 13.4613 10.3937 12.9422 10.6855 12.5339C10.9894 12.114 11.427 11.6591 11.9984 11.1692C12.436 10.7959 12.7582 10.4751 12.9648 10.2068C13.1836 9.92685 13.2931 9.61191 13.2931 9.26196C13.2931 8.77204 13.0864 8.37544 12.6731 8.07216C12.2598 7.76887 11.7066 7.61723 11.0137 7.61723C9.70082 7.61723 8.71007 8.06632 8.04147 8.96451L6.27271 7.86219C6.79543 7.17397 7.47011 6.64906 8.29675 6.28745C9.12339 5.91418 10.0959 5.72754 11.2143 5.72754C12.5758 5.72754 13.6577 6.01333 14.4601 6.5849C15.2746 7.14481 15.6818 7.92052 15.6818 8.91202C15.6818 9.39028 15.5967 9.81021 15.4265 10.1718C15.2685 10.5334 15.074 10.8425 14.843 11.0992C14.612 11.3441 14.3081 11.6299 13.9313 11.9565C13.4693 12.3531 13.1229 12.7031 12.8919 13.0064C12.6731 13.3096 12.5637 13.6712 12.5637 14.0912H10.2479ZM11.4149 18.273C10.9894 18.273 10.6369 18.1447 10.3573 17.8881C10.0898 17.6198 9.95611 17.2932 9.95611 16.9082C9.95611 16.5233 10.0898 16.2025 10.3573 15.9459C10.6369 15.6892 10.9894 15.5609 11.4149 15.5609C11.8282 15.5609 12.1686 15.6892 12.436 15.9459C12.7156 16.2025 12.8554 16.5233 12.8554 16.9082C12.8554 17.2932 12.7156 17.6198 12.436 17.8881C12.1686 18.1447 11.8282 18.273 11.4149 18.273Z" fill="white"/>
</svg>
