<svg width="33" height="33" viewBox="0 0 33 33" fill="none" xmlns="http://www.w3.org/2000/svg">
<path d="M23.8179 0H9.15482C4.10813 0 0 4.11153 0 9.16239V23.8376C0 28.8936 4.10813 33 9.15482 33H23.8179C28.8697 33 32.9727 28.8936 32.9727 23.8376V9.16239C32.9727 4.11153 28.8697 0 23.8179 0ZM30.4084 23.8376C30.4084 27.4769 27.4542 30.4335 23.8179 30.4335H9.15482C5.52366 30.4335 2.56437 27.4769 2.56437 23.8376V9.16239C2.56437 5.52823 5.52366 2.5665 9.15482 2.5665H23.8179C27.4542 2.5665 30.4084 5.52823 30.4084 9.16239V23.8376Z" fill="white"/>
<path d="M16.4889 23.9766C12.3706 23.9766 9.02148 20.6247 9.02148 16.5029C9.02148 12.3811 12.3706 9.0293 16.4889 9.0293C20.6073 9.0293 23.9564 12.3811 23.9564 16.5029C23.9564 20.6247 20.6073 23.9766 16.4889 23.9766ZM16.4889 11.5958C13.7861 11.5958 11.5859 13.7978 11.5859 16.5029C11.5859 19.208 13.7861 21.4101 16.4889 21.4101C19.1918 21.4101 21.392 19.208 21.392 16.5029C21.392 13.7978 19.1918 11.5958 16.4889 11.5958Z" fill="white"/>
<path d="M26.9524 8.08492C26.9524 9.20905 26.0394 10.1227 24.9111 10.1227C23.7828 10.1227 22.875 9.20905 22.875 8.08492C22.875 6.9608 23.7879 6.04199 24.9111 6.04199C26.0343 6.04199 26.9524 6.95566 26.9524 8.08492Z" fill="white"/>
</svg>
