<svg width="23" height="17" viewBox="0 0 23 17" fill="none" xmlns="http://www.w3.org/2000/svg">
<path d="M22.66 7.94C22.54 7.75 20.89 5.14 18.32 2.97L19.53 1.76C19.92 1.37 19.92 0.74 19.53 0.34C19.14 -0.05 18.5 -0.05 18.11 0.34L16.7 1.75C15.13 0.73 13.33 0 11.4 0C5.18 0 0.35 7.61 0.15 7.93C-0.05 8.26 -0.05 8.67 0.15 8.99C0.27 9.18 1.92 11.78 4.49 13.96L3.28 15.17C2.89 15.56 2.89 16.2 3.28 16.59C3.48 16.78 3.74 16.88 3.99 16.88C4.24 16.88 4.5 16.78 4.7 16.59L6.11 15.18C7.67 16.2 9.47 16.93 11.4 16.93C17.64 16.93 22.46 9.32 22.66 8.99C22.86 8.67 22.86 8.26 22.66 7.94ZM5.91 12.54C4.15 11.08 2.81 9.32 2.2 8.46C3.35 6.83 7.12 2 11.4 2C12.76 2 14.06 2.49 15.25 3.2L13.78 4.67C13.09 4.23 12.28 3.98 11.4 3.98C8.93 3.98 6.92 5.99 6.92 8.46C6.92 9.34 7.17 10.15 7.61 10.84L5.91 12.54ZM13.72 7.57C13.83 7.84 13.89 8.15 13.89 8.46C13.89 9.83 12.77 10.95 11.4 10.95C11.09 10.95 10.78 10.89 10.51 10.78L13.72 7.57ZM9.09 9.36C8.98 9.08 8.92 8.77 8.92 8.46C8.92 7.1 10.04 5.98 11.4 5.98C11.71 5.98 12.02 6.04 12.3 6.15L9.09 9.36ZM11.4 14.93C10.04 14.93 8.74 14.44 7.56 13.73L9.02 12.27C9.71 12.7 10.52 12.95 11.4 12.95C13.88 12.95 15.89 10.94 15.89 8.46C15.89 7.58 15.64 6.77 15.21 6.08L16.9 4.39C18.66 5.85 20 7.6 20.61 8.47C19.46 10.1 15.69 14.93 11.4 14.93Z" fill="white"/>
</svg>
