<svg width="35" height="44" viewBox="0 0 35 44" fill="none" xmlns="http://www.w3.org/2000/svg">
<g filter="url(#filter0_d_115_2020)">
<path d="M27.7354 28.825L26.7553 26.8107C26.1609 25.6 25.8481 24.2393 25.8481 22.8893V18.7857C25.8481 14.425 22.6574 10.8143 18.5492 10.2893V8.07143C18.5492 7.48214 18.08 7 17.5065 7C16.933 7 16.4638 7.48214 16.4638 8.07143V10.2893C12.3556 10.8143 9.16489 14.425 9.16489 18.7857V22.8893C9.16489 24.25 8.85208 25.6 8.25774 26.8107L7.2776 28.825C6.87095 29.6607 6.91265 30.6357 7.3923 31.4393C7.87194 32.2321 8.7061 32.7143 9.61325 32.7143H12.3451C12.6371 35.1143 14.8268 37 17.4961 37C20.1654 37 22.3551 35.1143 22.647 32.7143H25.3789C26.286 32.7143 27.1202 32.2429 27.5998 31.4393C28.0795 30.6464 28.1212 29.6607 27.7145 28.825H27.7354ZM17.5065 34.8571C15.9946 34.8571 14.7329 33.9357 14.441 32.7143H20.572C20.2801 33.9357 19.0184 34.8571 17.5065 34.8571ZM25.8377 30.3143C25.796 30.3893 25.65 30.5714 25.3893 30.5714H9.62368C9.363 30.5714 9.22745 30.3893 9.17532 30.3143C9.13361 30.2393 9.02934 30.0357 9.15446 29.7893L10.1346 27.775C10.8645 26.2643 11.2607 24.5821 11.2607 22.8893V18.7857C11.2607 15.2393 14.0656 12.3571 17.5169 12.3571C20.9683 12.3571 23.7731 15.2393 23.7731 18.7857V22.8893C23.7731 24.5714 24.1589 26.2643 24.8992 27.775L25.8794 29.7893C25.9941 30.0357 25.9002 30.2393 25.8585 30.3143H25.8377Z" fill="white"/>
</g>
<defs>
<filter id="filter0_d_115_2020" x="0" y="0" width="34.9922" height="44" filterUnits="userSpaceOnUse" color-interpolation-filters="sRGB">
<feFlood flood-opacity="0" result="BackgroundImageFix"/>
<feColorMatrix in="SourceAlpha" type="matrix" values="0 0 0 0 0 0 0 0 0 0 0 0 0 0 0 0 0 0 127 0" result="hardAlpha"/>
<feOffset/>
<feGaussianBlur stdDeviation="3.5"/>
<feComposite in2="hardAlpha" operator="out"/>
<feColorMatrix type="matrix" values="0 0 0 0 0 0 0 0 0 0 0 0 0 0 0 0 0 0 0.25 0"/>
<feBlend mode="normal" in2="BackgroundImageFix" result="effect1_dropShadow_115_2020"/>
<feBlend mode="normal" in="SourceGraphic" in2="effect1_dropShadow_115_2020" result="shape"/>
</filter>
</defs>
</svg>
