<svg width="74" height="66" viewBox="0 0 74 66" fill="none" xmlns="http://www.w3.org/2000/svg">
<path d="M53.4099 52.6201H20.3499C14.8699 52.6201 10.4199 48.1701 10.4199 42.6901V26.8201C10.4199 21.3401 14.8699 16.8901 20.3499 16.8901H24.1999C24.6599 15.3301 25.5099 13.8901 26.6999 12.7101C28.5699 10.8401 31.0599 9.81006 33.7199 9.81006H39.7799C44.2799 9.81006 48.0799 12.7701 49.2899 16.8901H53.4199C58.8899 16.8901 63.3399 21.3401 63.3399 26.8201V42.6901C63.3399 48.1701 58.8899 52.6201 53.4199 52.6201H53.4099ZM20.3499 21.8901C17.6299 21.8901 15.4199 24.1001 15.4199 26.8201V42.6901C15.4199 45.4101 17.6299 47.6201 20.3499 47.6201H53.4099C56.1199 47.6201 58.3299 45.4101 58.3299 42.6901V26.8201C58.3299 24.1001 56.1199 21.8901 53.4099 21.8901H47.1799C45.8399 21.8901 44.7399 20.8401 44.6799 19.5001C44.5699 16.8701 42.4099 14.8101 39.7699 14.8101H33.7099C32.3899 14.8101 31.1599 15.3201 30.2299 16.2501C29.3499 17.1301 28.8499 18.2801 28.7999 19.4801C28.7499 20.8201 27.6499 21.8901 26.2999 21.8901H20.3499Z" fill="white"/>
<path d="M36.7401 43.0699C31.2601 43.0699 26.8 38.6099 26.8 33.1299C26.8 27.6499 31.2601 23.1899 36.7401 23.1899C42.2201 23.1899 46.68 27.6499 46.68 33.1299C46.68 38.6099 42.2201 43.0699 36.7401 43.0699ZM36.7401 28.1899C34.0201 28.1899 31.8 30.4099 31.8 33.1299C31.8 35.8499 34.0201 38.0699 36.7401 38.0699C39.4601 38.0699 41.68 35.8499 41.68 33.1299C41.68 30.4099 39.4601 28.1899 36.7401 28.1899Z" fill="white"/>
<path d="M2.5 16C1.12 16 0 14.88 0 13.5V11C0 4.93 4.93 0 11 0H13.25C14.63 0 15.75 1.12 15.75 2.5C15.75 3.88 14.63 5 13.25 5H11C7.69 5 5 7.69 5 11V13.5C5 14.88 3.88 16 2.5 16Z" fill="white"/>
<path d="M70.9399 16C69.5599 16 68.4399 14.88 68.4399 13.5V11C68.4399 7.69 65.7499 5 62.4399 5H60.1899C58.8099 5 57.6899 3.88 57.6899 2.5C57.6899 1.12 58.8099 0 60.1899 0H62.4399C68.4999 0 73.4399 4.93 73.4399 11V13.5C73.4399 14.88 72.3199 16 70.9399 16Z" fill="white"/>
<path d="M13.27 65.9499H11.02C4.95002 65.9499 0.0200195 61.02 0.0200195 54.95V52.45C0.0200195 51.07 1.14002 49.95 2.52002 49.95C3.90002 49.95 5.02002 51.07 5.02002 52.45V54.95C5.02002 58.26 7.71002 60.95 11.02 60.95H13.27C14.65 60.95 15.77 62.07 15.77 63.45C15.77 64.83 14.65 65.9499 13.27 65.9499Z" fill="white"/>
<path d="M62.46 65.9499H60.21C58.83 65.9499 57.71 64.83 57.71 63.45C57.71 62.07 58.83 60.95 60.21 60.95H62.46C65.77 60.95 68.46 58.26 68.46 54.95V52.45C68.46 51.07 69.58 49.95 70.96 49.95C72.34 49.95 73.46 51.07 73.46 52.45V54.95C73.46 61.01 68.53 65.9499 62.46 65.9499Z" fill="white"/>
</svg>
