<svg width="23" height="23" viewBox="0 0 23 23" fill="none" xmlns="http://www.w3.org/2000/svg">
<path d="M11.8729 12.4135C14.2027 12.4135 16.0935 10.537 16.0935 8.22483C16.0935 5.91267 14.2027 4.03613 11.8729 4.03613C9.54316 4.03613 7.65234 5.91267 7.65234 8.22483C7.65234 10.537 9.54316 12.4135 11.8729 12.4135ZM11.8729 5.71161C13.2685 5.71161 14.4053 6.83977 14.4053 8.22483C14.4053 9.60989 13.2685 10.738 11.8729 10.738C10.4773 10.738 9.34057 9.60989 9.34057 8.22483C9.34057 6.83977 10.4773 5.71161 11.8729 5.71161Z" fill="white"/>
<path d="M20.223 18.6243C21.855 16.7255 22.8454 14.2569 22.8454 11.5762C22.8454 5.56677 17.927 0.685547 11.8719 0.685547C5.81681 0.685547 0.898438 5.56677 0.898438 11.5762C0.898438 14.2681 1.88887 16.7255 3.52082 18.6243C3.58835 18.7584 3.7009 18.8701 3.8247 18.9594C5.82807 21.104 8.6868 22.4668 11.8607 22.4668C15.0345 22.4668 17.8933 21.1152 19.8966 18.9594C20.0317 18.8701 20.1443 18.7584 20.2005 18.6243H20.223ZM11.8719 2.36103C16.9929 2.36103 21.1572 6.49387 21.1572 11.5762C21.1572 13.475 20.5719 15.2399 19.5815 16.7143C18.0959 14.4691 15.1471 12.9724 11.8719 12.9724C8.59677 12.9724 5.64799 14.458 4.16235 16.7143C3.16067 15.251 2.58667 13.475 2.58667 11.5762C2.58667 6.49387 6.75097 2.36103 11.8719 2.36103ZM5.31034 18.0882C6.33454 16.0441 8.93441 14.6479 11.8719 14.6479C14.8095 14.6479 17.4093 16.0441 18.4335 18.0882C16.7565 19.7525 14.438 20.7913 11.8719 20.7913C9.30582 20.7913 6.99857 19.7637 5.31034 18.0882Z" fill="white"/>
</svg>
