<svg width="23" height="17" viewBox="0 0 23 17" fill="none" xmlns="http://www.w3.org/2000/svg">
<path d="M11.41 16.93C5.18 16.93 0.35 9.32 0.15 8.99C-0.05 8.67 -0.05 8.25 0.15 7.93C0.35 7.61 5.18 0 11.41 0C17.64 0 22.46 7.61 22.66 7.93C22.86 8.25 22.86 8.66 22.66 8.99C22.46 9.31 17.63 16.92 11.41 16.92V16.93ZM2.21 8.46C3.36 10.09 7.13 14.92 11.41 14.92C15.69 14.92 19.46 10.09 20.61 8.46C19.46 6.83 15.69 2 11.41 2C7.13 2 3.36 6.83 2.21 8.46Z" fill="white"/>
<path d="M11.4099 12.9502C8.93993 12.9502 6.92993 10.9402 6.92993 8.47023C6.92993 6.00023 8.93993 3.99023 11.4099 3.99023C13.8799 3.99023 15.8899 6.00023 15.8899 8.47023C15.8899 10.9402 13.8799 12.9502 11.4099 12.9502ZM11.4099 5.99023C10.0399 5.99023 8.92993 7.10023 8.92993 8.47023C8.92993 9.84023 10.0399 10.9502 11.4099 10.9502C12.7799 10.9502 13.8899 9.84023 13.8899 8.47023C13.8899 7.10023 12.7799 5.99023 11.4099 5.99023Z" fill="white"/>
</svg>
