<svg width="34" height="33" viewBox="0 0 34 33" fill="none" xmlns="http://www.w3.org/2000/svg">
<path d="M24.7632 0H10.1001C5.05344 0 0.945312 4.11153 0.945312 9.16239V23.8376C0.945312 28.8936 5.05344 33 10.1001 33H24.7632C29.815 33 33.918 28.8936 33.918 23.8376V9.16239C33.918 4.11153 29.815 0 24.7632 0ZM31.3537 23.8376C31.3537 27.4769 28.3995 30.4335 24.7632 30.4335H10.1001C6.46898 30.4335 3.50969 27.4769 3.50969 23.8376V9.16239C3.50969 5.52823 6.46898 2.5665 10.1001 2.5665H24.7632C28.3995 2.5665 31.3537 5.52823 31.3537 9.16239V23.8376Z" fill="white"/>
<path d="M25.7549 21.3086C26.1256 21.7449 26.0708 22.3951 25.6244 22.7613C25.4264 22.9218 25.1863 23 24.9463 23C24.6472 23 24.3482 22.8765 24.1418 22.6296C22.4907 20.7078 20.6206 19.6214 18.4599 19.3333V21.9712C18.4599 22.5391 17.9882 23 17.407 23C11.0428 23 9.13478 18.0617 9 15.1029V15.0288V13.0288C9 12.4609 9.47173 12 10.053 12C10.6342 12 11.1059 12.4609 11.1059 13.0288V14.9794C11.127 15.5967 11.4766 20.2881 16.354 20.8807V13.0288C16.354 12.4609 16.8257 12 17.407 12C17.9882 12 18.4599 12.4609 18.4599 13.0288V17.2016C20.9997 17.0329 22.8108 15.535 23.9649 12.6543C24.1797 12.1235 24.7904 11.8642 25.3295 12.0741C25.8729 12.2798 26.1382 12.8765 25.9276 13.4074C25.0094 15.6872 23.6743 17.3251 21.9684 18.284C23.3499 18.9671 24.6135 19.9794 25.7549 21.3086Z" fill="white"/>
</svg>
