<svg width="34" height="33" viewBox="0 0 34 33" fill="none" xmlns="http://www.w3.org/2000/svg">
<path d="M24.7359 33H10.0728C5.0261 33 0.917969 28.8885 0.917969 23.8376V9.16239C0.917969 4.11153 5.02097 0 10.0728 0H24.7359C29.7826 0 33.8907 4.11153 33.8907 9.16239V23.8376C33.8907 28.8885 29.7826 33 24.7359 33ZM10.0728 2.5665C6.43651 2.5665 3.48234 5.5231 3.48234 9.16239V23.8376C3.48234 27.4718 6.43651 30.4335 10.0728 30.4335H24.7359C28.3722 30.4335 31.3263 27.4769 31.3263 23.8376V9.16239C31.3263 5.5231 28.3722 2.5665 24.7359 2.5665H10.0728Z" fill="white"/>
<path d="M13.3134 24.2893C13.0929 24.2893 12.8724 24.2328 12.6723 24.1199C12.2774 23.8889 12.0312 23.468 12.0312 23.006V9.99901C12.0312 9.54218 12.2774 9.11614 12.6723 8.88515C13.0673 8.65417 13.5596 8.65417 13.9545 8.88515L25.2121 15.3887C25.607 15.6196 25.8532 16.0405 25.8532 16.5025C25.8532 16.9645 25.607 17.3854 25.2121 17.6164L13.9545 24.1199C13.7545 24.2328 13.534 24.2893 13.3134 24.2893ZM14.5956 12.2165V20.7834L22.0067 16.5025L14.5956 12.2216V12.2165Z" fill="white"/>
</svg>
