<svg width="157" height="16" viewBox="0 0 157 16" fill="none" xmlns="http://www.w3.org/2000/svg">
<path d="M12.2794 14.887L3.91754 5.36003H3.84952L3.9751 6.41878L4.04313 14.887H0V0.326177H4.05185L12.5306 10.0939H12.5986L12.4922 9.11187L12.4154 0.324432H16.4568V14.887H12.2794Z" fill="white"/>
<path d="M18.2378 14.887L24.9165 0.326172H30.3724L37.0511 14.887H32.6818L31.4312 11.8852H23.8577L22.6071 14.887H18.2378ZM25.042 9.0264H30.2486L27.8712 3.30009H27.4281L25.042 9.0264Z" fill="white"/>
<path d="M54.2405 0.326172V8.60429C54.2405 9.56711 54.0818 10.4532 53.7644 11.2642C53.4469 12.0771 52.9515 12.773 52.2783 13.3573C51.605 13.9416 50.7468 14.3969 49.7038 14.7231C48.6607 15.0492 47.4154 15.2132 45.9642 15.2132C44.431 15.2132 43.1385 15.0457 42.085 14.7126C41.0332 14.3794 40.1838 13.919 39.5349 13.3312C38.8861 12.7434 38.4186 12.0474 38.1308 11.2433C37.843 10.4392 37.6982 9.56013 37.6982 8.61127V0.326172H41.942V8.61302C41.942 9.14501 42.017 9.63339 42.1687 10.0764C42.3187 10.5195 42.5577 10.898 42.8856 11.2119C43.2118 11.5259 43.6321 11.7701 44.1414 11.9428C44.6507 12.1154 45.2665 12.2026 45.9851 12.2026C46.7037 12.2026 47.3369 12.1137 47.8479 11.934C48.3572 11.7544 48.7741 11.505 49.0985 11.1875C49.423 10.8701 49.6567 10.4898 49.8015 10.0468C49.9462 9.60374 50.0177 9.12233 50.0177 8.60255V0.326172H54.2423H54.2405Z" fill="white"/>
<path d="M61.1981 3.68556H61.0533L61.1684 4.82106L61.3603 14.887H57.3765V0.326172H63.1115L67.3081 8.43859L67.5575 9.34385H67.6064L67.8663 8.41941L72.0524 0.326172H77.7787V14.887H73.8036L73.9955 4.82106L74.1019 3.67684H73.9571L69.607 12.7817H65.5552L61.1963 3.68731L61.1981 3.68556Z" fill="white"/>
<path d="M80.3777 6.91937C80.3777 5.86062 80.5661 4.90652 80.9411 4.05708C81.3161 3.20764 81.8778 2.4803 82.6243 1.87679C83.3708 1.27329 84.304 0.811068 85.4203 0.486641C86.5366 0.162214 87.8395 0 89.3274 0C90.8152 0 92.1181 0.165702 93.2345 0.495362C94.3508 0.826766 95.2822 1.29248 96.0305 1.89598C96.7787 2.49948 97.3386 3.22683 97.7154 4.0815C98.0904 4.93443 98.2788 5.88155 98.2788 6.92111V8.30603C98.2788 9.34559 98.0904 10.291 97.7154 11.1404C97.3404 11.9898 96.7787 12.7172 96.0305 13.3207C95.2822 13.9242 94.349 14.3899 93.2292 14.7213C92.1094 15.051 90.8047 15.2167 89.3169 15.2167C87.8291 15.2167 86.5331 15.0545 85.4151 14.73C84.297 14.4056 83.3638 13.9416 82.6191 13.3399C81.8743 12.7364 81.3144 12.0108 80.9394 11.1596C80.5644 10.3102 80.376 9.35955 80.376 8.30603V6.92111L80.3777 6.91937ZM89.3187 12.2026C89.9605 12.2026 90.564 12.1242 91.1326 11.9672C91.7013 11.8102 92.1966 11.573 92.6187 11.2555C93.0426 10.9381 93.3757 10.5404 93.6199 10.0625C93.8641 9.58455 93.9862 9.02116 93.9862 8.37405V6.86355C93.9862 6.20946 93.8641 5.6391 93.6199 5.15595C93.3757 4.67105 93.0426 4.26988 92.6187 3.95243C92.1949 3.63498 91.6995 3.39951 91.1326 3.24427C90.5658 3.08903 89.9605 3.01403 89.3187 3.01403C88.6768 3.01403 88.0733 3.09252 87.5099 3.2495C86.9448 3.40648 86.4529 3.6437 86.0325 3.96115C85.6122 4.2786 85.2808 4.67803 85.0366 5.15944C84.7924 5.64084 84.6703 6.20946 84.6703 6.86355L84.6807 8.37405C84.6807 9.02291 84.8028 9.58455 85.047 10.0625C85.2912 10.5404 85.6226 10.9381 86.043 11.2555C86.4633 11.573 86.9535 11.8102 87.5151 11.9672C88.0768 12.1242 88.6785 12.2026 89.3204 12.2026H89.3187Z" fill="white"/>
<path d="M116.977 0.326172L110.345 14.887H104.764L98.1338 0.326172H102.522L107.354 12.0579H107.748L112.588 0.326172H116.977Z" fill="white"/>
<path d="M116.977 14.887L121.882 4.46523H125.098L130.003 14.887H127.441L126.373 12.4486H120.607L119.539 14.887H116.977ZM121.352 10.7479H125.63L123.661 6.22864H123.33L121.353 10.7479H121.352Z" fill="#DBED5B"/>
<path d="M142.202 7.95892C142.202 8.313 142.148 8.62522 142.04 8.89557C141.931 9.16593 141.783 9.40489 141.595 9.61245C141.406 9.82002 141.181 9.99618 140.92 10.1427C140.658 10.2892 140.376 10.4131 140.072 10.5142C140.26 10.5962 140.423 10.6886 140.562 10.7898C140.7 10.891 140.82 11.0061 140.923 11.1352C141.026 11.2642 141.117 11.4108 141.195 11.5765C141.274 11.7422 141.344 11.927 141.408 12.1346L141.808 13.3957C141.895 13.6905 141.998 13.9678 142.118 14.2294C142.237 14.4911 142.371 14.7108 142.517 14.8905H139.885C139.77 14.7527 139.664 14.5748 139.565 14.3568C139.465 14.1387 139.38 13.8963 139.306 13.6312L138.872 12.2462C138.752 11.8416 138.532 11.5503 138.211 11.3706C137.89 11.191 137.464 11.0881 136.936 11.0602H133.897V14.8905H131.431V4.46523H138.085C138.738 4.46523 139.319 4.53325 139.828 4.67104C140.337 4.80884 140.768 5.01466 141.12 5.28676C141.471 5.5606 141.74 5.89549 141.923 6.29667C142.106 6.6961 142.198 7.15832 142.198 7.68159V7.95718L142.202 7.95892ZM139.687 7.64845C139.687 7.4374 139.657 7.2403 139.598 7.0589C139.538 6.8775 139.441 6.72052 139.305 6.58795C139.169 6.45539 138.992 6.35074 138.774 6.27399C138.556 6.19899 138.286 6.16062 137.965 6.16062H133.908V9.28802H137.503C138.192 9.28802 138.727 9.16244 139.111 8.91301C139.495 8.66185 139.687 8.28509 139.687 7.77926V7.64845Z" fill="#DBED5B"/>
<path d="M149.986 6.2426V14.887H147.506V6.2426H143.173V4.46523H154.312V6.2426H149.986Z" fill="#DBED5B"/>
<path d="M154.132 14.116C154.132 13.7812 154.244 13.537 154.467 13.3817C154.69 13.2282 155.052 13.1515 155.552 13.1515C156.053 13.1515 156.442 13.2282 156.665 13.3817C156.888 13.5352 157 13.7812 157 14.116C157 14.4509 156.888 14.6759 156.665 14.8294C156.442 14.9829 156.072 15.0597 155.552 15.0597C155.032 15.0597 154.69 14.9829 154.467 14.8294C154.244 14.6759 154.132 14.4387 154.132 14.116Z" fill="#DBED5B"/>
</svg>
